<svg width="24" height="25" viewBox="0 0 24 25" fill="none" xmlns="http://www.w3.org/2000/svg">
<mask id="path-1-inside-1_168_945" fill="white">
<path d="M14.5124 15.2663C15.0006 15.7545 15.0006 16.5459 14.5124 17.0341L12.8837 18.6628C12.3955 19.151 11.6041 19.151 11.1159 18.6628L9.48721 17.0341C8.99905 16.5459 8.99906 15.7545 9.48721 15.2663L11.1159 13.6376C11.6041 13.1494 12.3955 13.1494 12.8837 13.6376L14.5124 15.2663ZM10.4089 11.1628C10.8971 11.651 10.8971 12.4424 10.4089 12.9306L8.78018 14.5593C8.29202 15.0474 7.50057 15.0474 7.01241 14.5593L5.38369 12.9306C4.89554 12.4424 4.89554 11.651 5.38369 11.1628L7.01241 9.53409C7.50057 9.04593 8.29202 9.04593 8.78018 9.53409L10.4089 11.1628ZM18.6159 11.1628C19.1041 11.651 19.1041 12.4424 18.6159 12.9306L16.9872 14.5593C16.4991 15.0474 15.7076 15.0474 15.2194 14.5593L13.5907 12.9306C13.1026 12.4424 13.1026 11.651 13.5907 11.1628L15.2194 9.53409C15.7076 9.04593 16.4991 9.04593 16.9872 9.53409L18.6159 11.1628ZM14.5124 7.05929C15.0006 7.54744 15.0006 8.3389 14.5124 8.82705L12.8837 10.4558C12.3955 10.9439 11.6041 10.9439 11.1159 10.4558L9.48721 8.82705C8.99905 8.3389 8.99906 7.54744 9.48721 7.05929L11.1159 5.43057C11.6041 4.94241 12.3955 4.94241 12.8837 5.43057L14.5124 7.05929Z"/>
</mask>
<path d="M11.1159 5.43057L10.4088 4.72346L11.1159 5.43057ZM9.48721 7.05929L8.7801 6.35218L9.48721 7.05929ZM12.8837 10.4558L12.1766 9.74867L12.8837 10.4558ZM14.5124 7.05929L13.8053 7.76639L14.5124 7.05929ZM16.9872 9.53409L16.2801 10.2412L16.9872 9.53409ZM16.9872 14.5593L16.2801 13.8522L16.9872 14.5593ZM18.6159 12.9306L17.9088 12.2235L18.6159 12.9306ZM8.78018 14.5593L8.07307 13.8522L8.78018 14.5593ZM11.1159 13.6376L10.4088 12.9305L11.1159 13.6376ZM12.8837 13.6376L12.1766 14.3447L12.8837 13.6376ZM9.48721 15.2663L8.7801 14.5592L9.48721 15.2663ZM12.8837 18.6628L12.1766 17.9557L12.8837 18.6628ZM14.5124 17.0341L13.8053 16.327L12.1766 17.9557L12.8837 18.6628L13.5908 19.3699L15.2195 17.7412L14.5124 17.0341ZM11.1159 18.6628L11.823 17.9557L10.1943 16.327L9.48721 17.0341L8.7801 17.7412L10.4088 19.3699L11.1159 18.6628ZM9.48721 15.2663L10.1943 15.9734L11.823 14.3447L11.1159 13.6376L10.4088 12.9305L8.7801 14.5592L9.48721 15.2663ZM12.8837 13.6376L12.1766 14.3447L13.8053 15.9734L14.5124 15.2663L15.2195 14.5592L13.5908 12.9305L12.8837 13.6376ZM10.4089 12.9306L9.70179 12.2235L8.07307 13.8522L8.78018 14.5593L9.48729 15.2664L11.116 13.6377L10.4089 12.9306ZM7.01241 14.5593L7.71952 13.8522L6.0908 12.2235L5.38369 12.9306L4.67659 13.6377L6.30531 15.2664L7.01241 14.5593ZM5.38369 11.1628L6.0908 11.8699L7.71952 10.2412L7.01241 9.53409L6.30531 8.82698L4.67659 10.4557L5.38369 11.1628ZM8.78018 9.53409L8.07307 10.2412L9.70179 11.8699L10.4089 11.1628L11.116 10.4557L9.48729 8.82698L8.78018 9.53409ZM18.6159 12.9306L17.9088 12.2235L16.2801 13.8522L16.9872 14.5593L17.6943 15.2664L19.323 13.6377L18.6159 12.9306ZM15.2194 14.5593L15.9266 13.8522L14.2978 12.2235L13.5907 12.9306L12.8836 13.6377L14.5123 15.2664L15.2194 14.5593ZM13.5907 11.1628L14.2978 11.8699L15.9266 10.2412L15.2194 9.53409L14.5123 8.82698L12.8836 10.4557L13.5907 11.1628ZM16.9872 9.53409L16.2801 10.2412L17.9088 11.8699L18.6159 11.1628L19.323 10.4557L17.6943 8.82698L16.9872 9.53409ZM14.5124 8.82705L13.8053 8.11995L12.1766 9.74867L12.8837 10.4558L13.5908 11.1629L15.2195 9.53416L14.5124 8.82705ZM11.1159 10.4558L11.823 9.74867L10.1943 8.11995L9.48721 8.82705L8.7801 9.53416L10.4088 11.1629L11.1159 10.4558ZM9.48721 7.05929L10.1943 7.76639L11.823 6.13768L11.1159 5.43057L10.4088 4.72346L8.7801 6.35218L9.48721 7.05929ZM12.8837 5.43057L12.1766 6.13768L13.8053 7.76639L14.5124 7.05929L15.2195 6.35218L13.5908 4.72346L12.8837 5.43057ZM11.1159 5.43057L11.823 6.13768C11.9207 6.04005 12.079 6.04005 12.1766 6.13768L12.8837 5.43057L13.5908 4.72346C12.7121 3.84478 11.2875 3.84478 10.4088 4.72346L11.1159 5.43057ZM9.48721 8.82705L10.1943 8.11995C10.0967 8.02232 10.0967 7.86403 10.1943 7.76639L9.48721 7.05929L8.7801 6.35218C7.90142 7.23086 7.90142 8.65548 8.7801 9.53416L9.48721 8.82705ZM12.8837 10.4558L12.1766 9.74867C12.079 9.8463 11.9207 9.8463 11.823 9.74867L11.1159 10.4558L10.4088 11.1629C11.2875 12.0416 12.7121 12.0416 13.5908 11.1629L12.8837 10.4558ZM14.5124 8.82705L15.2195 9.53416C16.0982 8.65548 16.0982 7.23086 15.2195 6.35218L14.5124 7.05929L13.8053 7.76639C13.9029 7.86403 13.9029 8.02232 13.8053 8.11995L14.5124 8.82705ZM15.2194 9.53409L15.9266 10.2412C16.0242 10.1436 16.1825 10.1436 16.2801 10.2412L16.9872 9.53409L17.6943 8.82698C16.8156 7.9483 15.391 7.9483 14.5123 8.82698L15.2194 9.53409ZM13.5907 12.9306L14.2978 12.2235C14.2002 12.1258 14.2002 11.9675 14.2978 11.8699L13.5907 11.1628L12.8836 10.4557C12.0049 11.3344 12.0049 12.759 12.8836 13.6377L13.5907 12.9306ZM16.9872 14.5593L16.2801 13.8522C16.1825 13.9498 16.0242 13.9498 15.9266 13.8522L15.2194 14.5593L14.5123 15.2664C15.391 16.1451 16.8156 16.1451 17.6943 15.2664L16.9872 14.5593ZM18.6159 12.9306L19.323 13.6377C20.2017 12.759 20.2017 11.3344 19.323 10.4557L18.6159 11.1628L17.9088 11.8699C18.0065 11.9675 18.0065 12.1258 17.9088 12.2235L18.6159 12.9306ZM7.01241 9.53409L7.71952 10.2412C7.81715 10.1436 7.97544 10.1436 8.07307 10.2412L8.78018 9.53409L9.48729 8.82698C8.60861 7.9483 7.18399 7.9483 6.30531 8.82698L7.01241 9.53409ZM5.38369 12.9306L6.0908 12.2235C5.99317 12.1258 5.99317 11.9675 6.0908 11.8699L5.38369 11.1628L4.67659 10.4557C3.79791 11.3344 3.79791 12.759 4.67659 13.6377L5.38369 12.9306ZM8.78018 14.5593L8.07307 13.8522C7.97544 13.9498 7.81715 13.9498 7.71952 13.8522L7.01241 14.5593L6.30531 15.2664C7.18398 16.1451 8.60861 16.1451 9.48729 15.2664L8.78018 14.5593ZM10.4089 12.9306L11.116 13.6377C11.9947 12.759 11.9947 11.3344 11.116 10.4557L10.4089 11.1628L9.70179 11.8699C9.79942 11.9675 9.79942 12.1258 9.70179 12.2235L10.4089 12.9306ZM11.1159 13.6376L11.823 14.3447C11.9207 14.2471 12.079 14.2471 12.1766 14.3447L12.8837 13.6376L13.5908 12.9305C12.7121 12.0518 11.2875 12.0518 10.4088 12.9305L11.1159 13.6376ZM9.48721 17.0341L10.1943 16.327C10.0967 16.2293 10.0967 16.0711 10.1943 15.9734L9.48721 15.2663L8.7801 14.5592C7.90142 15.4379 7.90142 16.8625 8.7801 17.7412L9.48721 17.0341ZM12.8837 18.6628L12.1766 17.9557C12.079 18.0533 11.9207 18.0533 11.823 17.9557L11.1159 18.6628L10.4088 19.3699C11.2875 20.2486 12.7121 20.2486 13.5908 19.3699L12.8837 18.6628ZM14.5124 17.0341L15.2195 17.7412C16.0982 16.8625 16.0982 15.4379 15.2195 14.5592L14.5124 15.2663L13.8053 15.9734C13.9029 16.0711 13.9029 16.2293 13.8053 16.327L14.5124 17.0341Z" fill="white" mask="url(#path-1-inside-1_168_945)"/>
</svg>
