<svg width="32" height="32" viewBox="0 0 32 32" fill="none" xmlns="http://www.w3.org/2000/svg">
<path fill-rule="evenodd" clip-rule="evenodd" d="M1.80153 0.0849325C1.31197 -0.0986548 0.760278 0.0208461 0.390562 0.390562C0.0208461 0.760278 -0.0986548 1.31197 0.0849325 1.80153L11.0849 31.1348C11.2899 31.6813 11.8264 32.031 12.4092 31.9978C12.9919 31.9646 13.4853 31.5563 13.6269 30.99L17.0995 17.0995L30.99 13.6269C31.5563 13.4853 31.9646 12.9919 31.9978 12.4092C32.031 11.8264 31.6813 11.2899 31.1348 11.0849L1.80153 0.0849325Z" fill="#CDCDD5"/>
<path fill-rule="evenodd" clip-rule="evenodd" d="M6.24528 5.69801C5.94403 5.58505 5.60455 5.65858 5.37705 5.88608C5.14955 6.11358 5.07601 6.45306 5.18898 6.75432L11.9578 24.8044C12.0839 25.1407 12.4141 25.3559 12.7726 25.3355C13.1312 25.315 13.4348 25.0637 13.5219 24.7153L15.6588 16.1678L24.2063 14.031C24.5547 13.9439 24.806 13.6403 24.8264 13.2817C24.8468 12.9231 24.6317 12.5929 24.2954 12.4668L6.24528 5.69801Z" fill="#1F2033"/>
</svg>
